<svg xmlns="http://www.w3.org/2000/svg" height="88.192" viewBox="0 0 270.8046 88.191597" width="270.8"><g transform="matrix(1.25 0 0 -1.25 -248.3 564.76)"><path d="m226.71 450.97-0.0968-3.7034h0.51953c0.20901 1.1688 0.52174 1.926 0.9368 2.2728 0.41506 0.34762 1.1964 0.52117 2.3444 0.52117h1.137v-10.883c0-0.95091-0.10967-1.5442-0.32758-1.7806-0.21717-0.23569-0.76879-0.38932-1.6538-0.46047v-0.38992h6.0741v0.38992c-0.82937 0.0637-1.3667 0.19705-1.6127 0.40086-0.24532 0.20384-0.36859 0.73109-0.36859 1.5805v11.143h1.137c1.2096 0 2.0025-0.17549 2.3805-0.52609 0.37653-0.35056 0.68784-1.1064 0.93242-2.2679h0.48781l-0.0979 3.7034h-11.792zm12.23-3.5733v-0.29258c0.57071-0.043 0.94114-0.15405 1.1102-0.33195 0.16971-0.17934 0.25429-0.56716 0.25429-1.1616v-7.0826c0-0.71669-0.0763-1.1603-0.2275-1.33-0.1512-0.16975-0.53064-0.28887-1.137-0.35929v-0.29203h4.3209v0.29203c-0.56847 0.0482-0.93748 0.15871-1.108 0.3314-0.17195 0.17196-0.25648 0.56046-0.25648 1.1638v3.378h4.7102v-3.1839c0-0.71669-0.0739-1.1606-0.22367-1.3333-0.14896-0.17269-0.52933-0.29151-1.1408-0.35601v-0.29203h4.3203v0.29203c-0.57067 0.0541-0.94044 0.16625-1.1102 0.33523-0.16971 0.16972-0.25429 0.55663-0.25429 1.1599v7.2767c0 0.59441 0.0846 0.98223 0.25429 1.1616 0.16972 0.1779 0.53949 0.28897 1.1102 0.33195v0.29258h-4.3203v-0.29258c0.57589-0.043 0.94721-0.15405 1.114-0.33195 0.16678-0.17934 0.25047-0.56716 0.25047-1.1616v-3.1839h-4.7102v3.1839c0 0.59441 0.0845 0.98223 0.25648 1.1616 0.17049 0.1779 0.5395 0.28897 1.108 0.33195v0.29258h-4.3209zm10.823 0v-0.29258c0.57515-0.043 0.94724-0.15548 1.114-0.33633 0.16678-0.18231 0.24993-0.56796 0.24993-1.1572v-7.2767c-0.00001-0.62555-0.0846-1.0147-0.2543-1.1681-0.16898-0.15267-0.53964-0.26253-1.1096-0.32703v-0.29203h8.4049l0.6907 2.7284h-0.42383c-0.4032-0.91165-0.85363-1.486-1.3524-1.7232-0.50106-0.23716-1.276-0.35601-2.327-0.35601-0.96873 0-1.5509 0.03-1.7451 0.0886-0.19418 0.0578-0.29148 0.24959-0.29148 0.57422v4.0485h2.3718c0.66259 0 1.086-0.103 1.2698-0.3068 0.18382-0.20458 0.33387-0.62216 0.45172-1.2529h0.35656v3.768h-0.35656c-0.11263-0.62853-0.26083-1.0448-0.44461-1.2502-0.18382-0.20604-0.60916-0.30898-1.277-0.30898h-2.3718v3.6969c0 0.21641 0.0267 0.3633 0.0793 0.44188 0.0533 0.0778 0.19266 0.11703 0.41946 0.11703h2.1c0.91829 0 1.5098-0.10687 1.7752-0.31883 0.2646-0.21273 0.46363-0.68009 0.59555-1.4027h0.39047l-0.0651 2.3062h-8.2507zm-41.28-17.58c-2.2865 0-4.218-0.78805-5.793-2.363-1.6765-1.681-2.5145-3.8773-2.5145-6.5893 0-2.7357 0.87563-4.9117 2.6256-6.5275 1.5809-1.4616 3.5392-2.1924 5.8762-2.1924 1.5261 0 2.9143 0.43525 4.1639 1.3054 0.70115 0.48769 1.5152 1.2755 2.4402 2.3658l-0.70547 0.61687c-0.81529-0.90867-1.5232-1.5701-2.1235-1.983-1.0458-0.71375-2.1767-1.0702-3.3923-1.0702-1.9841 0-3.3412 1.0778-4.072 3.2353-0.39282 1.151-0.58953 2.6189-0.58953 4.4029 0 2.4244 0.33301 4.3557 0.99859 5.7958 0.66484 1.4386 1.7888 2.1591 3.3742 2.1591 1.3993 0 2.6535-0.67258 3.7609-2.0163 0.5922-0.72933 1.1726-1.7235 1.7418-2.9865h0.61742v5.8472h-0.64914c-0.0467-0.2772-0.16076-0.54116-0.34235-0.79242-0.18159-0.252-0.42259-0.37734-0.72351-0.37734-0.11562 0-0.67959 0.19478-1.692 0.58461-1.0124 0.38986-2.0125 0.58515-3.0012 0.58515zm93.225-0.32484v-0.65024c0.82642-0.0971 1.359-0.26589 1.5947-0.5075 0.23643-0.24237 0.35383-0.83176 0.35383-1.7664v-8.3371c0-1.4364 0.26443-2.6094 0.79734-3.518 1.0014-1.7121 2.8602-2.5681 5.5803-2.5681 2.0797 0 3.606 0.57702 4.5762 1.7303 0.97097 1.1533 1.4552 2.7895 1.4552 4.9093v7.9789c0 0.79303 0.12037 1.2996 0.36422 1.5198 0.23863 0.22085 0.73668 0.40693 1.4875 0.5589v0.65024h-5.198v-0.65024c0.91165-0.0727 1.5238-0.27534 1.838-0.60812 0.31129-0.33429 0.46922-0.944 0.46922-1.8282v-7.6212c0-1.4038-0.17786-2.4957-0.52993-3.2747-0.63962-1.4201-1.8651-2.1301-3.681-2.1301-1.4601 0-2.4489 0.64023-2.9641 1.9217-0.28385 0.68929-0.42711 1.6672-0.42711 2.9323v8.3344c0 0.95168 0.15502 1.5605 0.46484 1.8266 0.30835 0.26607 0.92134 0.41472 1.8419 0.44734v0.65024h-8.0232zm-80.677-3.9304-3.9315-10.246c-0.31352-0.81529-0.55362-1.3413-0.72187-1.5799-0.26164-0.38024-0.6059-0.58595-1.0358-0.61633v-0.48727h3.6384v0.48727c-0.40691 0.006-0.7122 0.0425-0.91602 0.10992-0.34243 0.12306-0.51406 0.31972-0.51406 0.58953 0 0.22012 0.0782 0.57239 0.23461 1.0571 0.0726 0.22606 0.23706 0.7125 0.49054 1.4596h3.9944l0.45281-1.1468c0.0986-0.252 0.1768-0.46725 0.23461-0.64586 0.0926-0.29795 0.13945-0.52062 0.13945-0.66664 0-0.32238-0.0895-0.52225-0.26961-0.60156-0.17936-0.0793-0.55229-0.13085-1.1178-0.15531v-0.48727h5.7498v0.48727c-0.40543-0.0119-0.71741 0.14187-0.9368 0.46429-0.22013 0.32165-0.55205 1.0366-0.9975 2.1454l-3.9638 9.8328h-0.52992zm37.017 0c-1.8604 0-3.3808-0.64097-4.5593-1.9217-1.1681-1.2615-1.7511-2.8754-1.7511-4.8388 0-1.781 0.5574-3.2997 1.6729-4.556 1.1963-1.3356 2.7423-2.0032 4.6375-2.0032 1.7863 0 3.2738 0.60985 4.4641 1.8298 1.2192 1.2496 1.8298 2.8592 1.8298 4.83 0 1.9693-0.61061 3.5796-1.8298 4.83-1.1837 1.2192-2.6727 1.8298-4.4641 1.8298zm31.524 0c-1.7173 0-3.1653-0.59453-4.3482-1.7812-1.2585-1.2666-1.8873-2.9222-1.8873-4.9656 0-2.0627 0.65669-3.7032 1.9693-4.9202 1.1874-1.1022 2.6568-1.6527 4.4111-1.6527 1.1466 0 2.187 0.32772 3.1254 0.98219 0.52696 0.36687 1.1362 0.95979 1.8315 1.7795l-0.52993 0.45719c-0.61372-0.68782-1.1453-1.1868-1.5974-1.4995-0.78711-0.54033-1.6386-0.80937-2.5517-0.80937-1.4942 0-2.5149 0.81486-3.0641 2.4462-0.29571 0.87091-0.44297 1.981-0.44297 3.3299 0 1.833 0.25035 3.2944 0.75141 4.3832 0.50029 1.088 1.3488 1.633 2.5413 1.633 1.0554 0 1.9992-0.50642 2.8344-1.5181 0.44471-0.54922 0.88356-1.2994 1.312-2.2504h0.45445v4.3859h-0.48672c-0.0363-0.20829-0.12122-0.40655-0.25758-0.59555-0.13562-0.18826-0.3172-0.28219-0.5425-0.28219-0.0867 0-0.5116 0.14582-1.2698 0.4386-0.76044 0.29204-1.5114 0.43914-2.2526 0.43914zm88.483 0c-1.2622 0-2.1991-0.3959-2.8098-1.1867-0.61072-0.79083-0.91602-1.6419-0.91602-2.555 0-0.85754 0.23114-1.5779 0.69289-2.1612 0.46176-0.58478 1.2571-1.1741 2.3844-1.7708l1.1348-0.60157c0.70561-0.37131 1.174-0.67219 1.406-0.90343 0.34688-0.35207 0.52281-0.80867 0.52281-1.3683 0-0.48027-0.1672-0.93908-0.50148-1.3727-0.33278-0.43509-0.89412-0.65242-1.6827-0.65242-0.81529 0-1.5354 0.31904-2.1662 0.95867-0.63 0.63892-1.0838 1.6616-1.3677 3.0691h-0.51954v-4.6452h0.51954c0.0504 0.19642 0.11116 0.3486 0.17937 0.45609 0.0682 0.10745 0.19267 0.16133 0.37352 0.16133 0.0519 0 0.11252-0.008 0.18812-0.0219 0.0741-0.0148 0.1491-0.0334 0.22914-0.0563l0.34125-0.1307c0.34986-0.13933 0.70674-0.24173 1.067-0.30844 0.36022-0.0667 0.71671-0.10007 1.068-0.10007 1.532 0 2.6468 0.41667 3.3398 1.2512 0.6952 0.83307 1.0418 1.7197 1.0418 2.6594 0 1.0058-0.32396 1.862-0.97398 2.5654-0.34762 0.37579-0.81341 0.71866-1.3967 1.0292l-1.3054 0.69289c-1.0933 0.57739-1.7983 1.0156-2.1126 1.3136-0.32168 0.29201-0.48015 0.7329-0.48015 1.3229 0 0.49287 0.17075 0.91011 0.51242 1.254 0.34317 0.34391 0.8079 0.5157 1.3956 0.5157 0.83531 0 1.5458-0.342 2.1306-1.0276 0.58478-0.68411 0.99321-1.5012 1.2244-2.4484h0.48617v4.0611h-0.53484c-0.0452-0.18606-0.1047-0.33596-0.17883-0.44789-0.0749-0.1134-0.20815-0.16953-0.40086-0.16953-0.0853 0-0.42869 0.10239-1.0276 0.30843-0.59962 0.20531-1.2221 0.30899-1.8632 0.30899zm-151.4-0.29313-0.0175-3.768h0.51953c0.10895 1.3296 0.58514 2.2367 1.4301 2.7229 0.45953 0.26089 1.1195 0.4032 1.9808 0.42766v-9.8372c0-0.6819-0.11582-1.1369-0.34781-1.3644-0.23199-0.22831-0.70116-0.3418-1.406-0.3418v-0.47578h6.335v0.47578c-0.71673 0-1.188 0.11155-1.4148 0.33688-0.22606 0.22456-0.33961 0.68155-0.33961 1.3694v9.8372c0.87756-0.0245 1.5381-0.16677 1.9813-0.42766 0.78639-0.47435 1.2628-1.3814 1.4295-2.7229h0.52008l-0.0175 3.768h-10.653zm11.354 0v-0.48672c0.52402-0.0541 0.87486-0.13478 1.0527-0.24226 0.29351-0.18529 0.44133-0.53735 0.44133-1.0577v-9.0634c0-0.53585-0.16459-0.89962-0.49219-1.0916-0.19642-0.11491-0.52972-0.18408-1.0019-0.20781v-0.48727h5.9768v0.48727c-0.48251 0.0178-0.82648 0.081-1.0303 0.18922-0.35206 0.19271-0.52937 0.56244-0.52937 1.1102v4.3214h4.2569v-4.3214c0-0.5292-0.16424-0.8901-0.4889-1.0828-0.21196-0.12677-0.56825-0.19878-1.0708-0.21656v-0.48727h6.0419v0.48727c-0.47953 0.0178-0.82027 0.0842-1.0248 0.19906-0.35651 0.19197-0.5343 0.55851-0.5343 1.1003v9.0634c0 0.52626 0.16088 0.88112 0.4818 1.0664 0.19271 0.1134 0.55185 0.19127 1.0773 0.23351v0.48672h-6.0419v-0.48672c0.5307-0.0363 0.8941-0.11104 1.0883-0.22367 0.31353-0.18606 0.4714-0.54407 0.4714-1.0762v-3.8653h-4.2569v3.8653c0 0.53218 0.16512 0.89321 0.49492 1.0844 0.19863 0.11414 0.55335 0.18509 1.0648 0.21547v0.48672h-5.9768zm26.941 0v-0.48672c0.51142-0.0304 0.86617-0.10133 1.0604-0.21547 0.33278-0.18532 0.4993-0.54636 0.4993-1.0844v-9.0475c0-0.54845-0.17496-0.91926-0.52555-1.1134-0.20605-0.11637-0.55163-0.18401-1.0341-0.20179v-0.48727h10.299l0.71476 4.223h-0.51953c-0.5292-1.4216-1.1576-2.3782-1.8862-2.8689-0.72933-0.4914-1.6307-0.73664-2.7054-0.73664-0.59738 0-0.99998 0.0666-1.2075 0.20071-0.20531 0.13342-0.30844 0.40784-0.30844 0.8214v8.8211c0 0.7308 0.12287 1.1883 0.36969 1.3743 0.24605 0.18603 0.73991 0.29054 1.4826 0.315v0.48672h-6.2388zm11.469 0v-0.48672c0.53218-0.0245 0.90278-0.0935 1.1118-0.20617 0.34093-0.18529 0.51297-0.54971 0.51297-1.0938v-9.0634c0-0.54771-0.18066-0.91744-0.53867-1.1102-0.22085-0.11414-0.58283-0.17662-1.0861-0.18922v-0.48727h6.2054v0.48727c-0.55289 0-0.96639 0.0872-1.2436 0.2614-0.2757 0.17493-0.41399 0.52064-0.41399 1.038v9.0634c0 0.54996 0.17233 0.91702 0.51844 1.103 0.20678 0.10671 0.58625 0.17241 1.1391 0.19687v0.48672h-6.2054zm41.951 0v-0.48672c0.22014-0.0304 0.39202-0.10244 0.51952-0.21437 0.12747-0.1134 0.46331-0.48732 1.0074-1.1255v-8.861c0-0.47285-0.0971-0.83027-0.28766-1.0719-0.18973-0.24238-0.61367-0.37214-1.2726-0.38992v-0.48727h4.0616v0.48727c-0.73822 0.0296-1.2257 0.23499-1.4629 0.61523-0.15193 0.23569-0.2275 0.63594-0.2275 1.2037v7.3385h0.12141l7.805-10.035h0.48727v11.078c0 0.55884 0.0954 0.91812 0.28218 1.079 0.18754 0.16009 0.55972 0.28774 1.1156 0.38336v0.48672h-3.8659v-0.48672c0.66262-0.0541 1.1044-0.2155 1.3245-0.48234 0.22158-0.26684 0.3325-0.71232 0.3325-1.3371v-5.4857h-0.0864l-6.0616 7.7919h-3.7926zm12.481 0v-0.48672c0.53067-0.0245 0.90278-0.0935 1.1118-0.20617 0.34167-0.18529 0.51242-0.54971 0.51242-1.0938v-9.0634c0-0.54771-0.17973-0.91744-0.53922-1.1102-0.21938-0.11414-0.58173-0.17662-1.085-0.18922v-0.48727h6.2043v0.48727c-0.55293 0-0.96566 0.0872-1.2436 0.2614-0.27496 0.17493-0.41289 0.52064-0.41289 1.038v9.0634c0 0.54996 0.1727 0.91702 0.51735 1.103 0.20678 0.10671 0.58621 0.17241 1.1391 0.19687v0.48672h-6.2043zm6.562 0v-0.48672c0.41136-0.0371 0.71183-0.15429 0.90454-0.35218 0.19418-0.19789 0.38346-0.52259 0.56875-0.97399l4.5691-11.214h0.45445l4.0491 11.004c0.20234 0.5418 0.41064 0.92109 0.62781 1.1375 0.21714 0.21644 0.54186 0.34919 0.97618 0.39812v0.48672h-3.7844v-0.48672c0.61369-0.043 1.0205-0.10867 1.2206-0.19687 0.19936-0.0889 0.29914-0.31092 0.29914-0.66445 0-0.14676-0.0348-0.33884-0.10446-0.5775-0.04-0.14676-0.0863-0.28978-0.13672-0.42985l-2.3237-6.3098-2.8098 6.8955c-0.0408 0.0979-0.0683 0.18769-0.0809 0.27071-0.0163 0.0822-0.023 0.17252-0.023 0.26961-0.00001 0.30611 0.0934 0.49679 0.28163 0.57312 0.18823 0.0756 0.60131 0.13247 1.2365 0.16953v0.48672h-5.9248zm12.417 0v-0.48672c0.51807-0.0304 0.87617-0.10133 1.0741-0.21547 0.34468-0.18532 0.51734-0.54636 0.51734-1.0844v-9.0634c0-0.5292-0.16853-0.8901-0.49984-1.0828-0.2157-0.12677-0.58091-0.19878-1.0916-0.21656v-0.48727h10.46l0.71421 3.8987h-0.45445c-0.56476-1.2666-1.2121-2.1295-1.9414-2.5905-0.72709-0.46099-1.6692-0.69071-2.8202-0.69071-0.61369 0-1.0173 0.0719-1.213 0.21493-0.19792 0.14304-0.29531 0.41246-0.29531 0.80828v4.532c1.028 0 1.739-0.21665 2.1356-0.65023 0.39504-0.43435 0.65892-1.1797 0.78859-2.2411h0.45445v6.2366h-0.45445c-0.19491-1.0443-0.47296-1.7633-0.83836-2.1569-0.36466-0.39358-1.0578-0.58354-2.0858-0.57094v4.3416c0 0.35357 0.0742 0.59072 0.22312 0.7093 0.149 0.11935 0.4995 0.17828 1.0495 0.17828 1.4446 0 2.4411-0.22284 2.9881-0.66828 0.54698-0.44622 0.9349-1.2734 1.1632-2.4823h0.45609v3.768h-10.33zm11.532 0v-0.48672c0.60631-0.0541 0.99708-0.1524 1.1698-0.29695 0.25868-0.21493 0.38882-0.68009 0.38882-1.3923v-8.2841c0-0.68705-0.10948-1.1322-0.32812-1.336-0.21865-0.20605-0.63011-0.32364-1.2305-0.35328v-0.48727h6.0102v0.48727c-0.62405 0.0237-1.039 0.14931-1.248 0.37461-0.20825 0.22606-0.31117 0.66393-0.31117 1.3147v3.6712h0.0279l4.1344-5.8477h3.6816v0.48727c-0.1638 0.0126-0.30316 0.0412-0.41289 0.0864-0.11189 0.0452-0.21712 0.14073-0.31718 0.28602l-3.7456 5.2965c0.63742 0.12156 1.2413 0.40085 1.8134 0.83891 0.74637 0.58254 1.1205 1.3815 1.1205 2.397 0 1.3734-0.71301 2.3233-2.1383 2.8525-0.73602 0.26093-1.6981 0.39211-2.887 0.39211h-5.728zm22.046 0v-0.48672c0.53144-0.0245 0.90354-0.0935 1.1118-0.20617 0.34166-0.18529 0.51187-0.54971 0.51187-1.0938v-9.0634c0-0.54771-0.17887-0.91744-0.53758-1.1102-0.22162-0.11414-0.58283-0.17662-1.0861-0.18922v-0.48727h6.2043v0.48727c-0.55146 0-0.9655 0.0872-1.242 0.2614-0.27647 0.17493-0.41398 0.52064-0.41398 1.038v9.0634c0 0.54996 0.17215 0.91702 0.51679 1.103 0.20829 0.10671 0.58768 0.17241 1.1392 0.19687v0.48672h-6.2043zm6.7424 0-0.017-3.768h0.51954c0.10895 1.3296 0.58478 2.2367 1.429 2.7229 0.45878 0.26089 1.1206 0.4032 1.9819 0.42766v-9.8372c0-0.6819-0.1173-1.1369-0.34782-1.3644-0.23421-0.22831-0.70151-0.3418-1.4071-0.3418v-0.47578h6.3345v0.47578c-0.716 0-1.1876 0.11155-1.4137 0.33688-0.2268 0.22456-0.3407 0.68155-0.3407 1.3694v9.8372c0.87906-0.0245 1.5387-0.16677 1.9819-0.42766 0.78638-0.47435 1.2637-1.3814 1.429-2.7229h0.52008l-0.0175 3.768h-10.652zm11.288 0v-0.48672c0.21571-0.006 0.42681-0.0616 0.63656-0.16461 0.31276-0.16453 0.57836-0.45076 0.79406-0.85914l3.2484-6.1879v-2.7453c0-0.68113-0.11074-1.131-0.33086-1.3497-0.21717-0.21938-0.6608-0.33823-1.3256-0.35601v-0.48727h6.2026v0.48727c-0.63966 0.0178-1.0756 0.12943-1.3076 0.3325-0.23271 0.2031-0.34781 0.65933-0.34781 1.3694v3.4311l3.3944 5.8155c0.14602 0.23422 0.32502 0.40955 0.53922 0.52446 0.16825 0.0719 0.39588 0.13565 0.67977 0.18976v0.48672h-3.9102v-0.48672c0.57292-0.043 0.94538-0.10073 1.1129-0.17336 0.24756-0.10972 0.37243-0.32788 0.37243-0.65625 0-0.21269-0.1016-0.54058-0.30243-0.98382-0.13489-0.29127-0.26125-0.53742-0.38281-0.73829l-1.9152-3.2796h-0.0153l-2.3543 4.4822c-0.11561 0.26089-0.18977 0.4417-0.22313 0.5425-0.0304 0.0993-0.0459 0.1924-0.0459 0.27836-0.00001 0.19345 0.087 0.32093 0.26195 0.38172 0.17195 0.0615 0.56629 0.1095 1.1785 0.14656v0.48672h-5.9598zm-143.39-0.32429c0.96873 0 1.7341-0.50782 2.2996-1.5225 0.56476-1.0147 0.84711-2.521 0.84711-4.5199 0-1.4549-0.13311-2.6344-0.39922-3.5394-0.49878-1.6691-1.4141-2.503-2.7475-2.503-1.3438 0-2.263 0.83393-2.7552 2.503-0.26754 0.89831-0.40032 2.0785-0.40032 3.5394 0 1.4364 0.13123 2.6032 0.39212 3.5022 0.49808 1.6936 1.4196 2.5402 2.7634 2.5402zm108.92-0.29313c0.87462 0 1.4763-0.35544 1.8069-1.067 0.19047-0.41951 0.28601-0.99108 0.28601-1.7145 0-1.18-0.25204-1.9329-0.75086-2.2575-0.50102-0.32536-1.3332-0.49715-2.4976-0.5157v4.7523c0 0.28536 0.0738 0.49056 0.21984 0.61579 0.14896 0.12453 0.46135 0.18648 0.9357 0.18648zm-146.82-3.2484h0.14602l1.7084-4.3203h-3.442l1.5876 4.3203zm26.987-14.841c-1.3979 0-2.7967-0.59957-3.9818-2.0716-1.3979-1.7462-2.0138-3.692-2.6305-5.9385h-2.0382c-0.30831-0.22312-0.40344-0.69744-0.16625-0.92203h1.9671c-1.1377-4.0661-1.9193-8.3584-3.1281-12.525-0.49805-1.6973-1.0666-2.0699-1.4935-2.0699-0.47435 0-1.0904 0.34687-1.4224 0.92203-0.189 0.32536-0.35483 0.52378-0.68687 0.22586-0.16603-0.12527-0.45008-0.35058-0.45008-0.89907 0-0.42469 0.44973-1.2726 1.54-1.2726 1.3986 0 2.418 0.97241 2.7026 1.2726 0.49732 0.47436 1.2086 1.8472 1.872 4.0923 0.78197 2.7431 1.469 5.5128 2.228 8.2819 0.21346 0.75005 0.40237 1.5475 0.54468 1.9715h2.9395c0.35504 0.27349 0.40261 0.64704 0.23734 0.92203h-2.963c0.6404 2.1212 1.1132 4.1419 2.228 5.8155 0.56921 0.84644 1.1612 1.3459 1.849 1.3459 0.61519 0 1.3742-0.44859 1.4454-1.9458 0.0237-0.1749 0.11867-0.39922 0.3314-0.39922 0.37947 0 1.0188 0.77297 1.0188 1.546 0 0.99911-0.94765 1.6477-1.943 1.6477zm11.186-0.58953-5.2626-13.671c-0.41654-1.0873-0.73723-1.789-0.96032-2.1077-0.34762-0.5055-0.80741-0.78063-1.3781-0.82141v-0.65023h4.8409v0.65023c-0.52847 0.007-0.9254 0.0584-1.19 0.14657-0.44916 0.16156-0.6743 0.42131-0.6743 0.77929 0 0.29204 0.10472 0.75942 0.31227 1.4006 0.10227 0.30387 0.33132 0.95863 0.68632 1.9622h5.2823l0.60703-1.5187c0.13269-0.33572 0.23646-0.6214 0.315-0.8586 0.12306-0.39949 0.18539-0.69791 0.18539-0.89359 0-0.43358-0.12169-0.70211-0.36476-0.80883-0.24311-0.10748-0.75038-0.17555-1.522-0.20891v-0.65023h7.6672v0.65023c-0.54033-0.0156-0.9561 0.18971-1.2496 0.61961-0.29277 0.4284-0.73524 1.3813-1.3289 2.8607l-5.2855 13.12h-0.68032zm62.585-4.3192c-1.7158 0-3.1649-0.5953-4.3493-1.7812-1.2578-1.2674-1.8862-2.9226-1.8862-4.9667 0-2.0627 0.6576-3.7012 1.9709-4.9197 1.1851-1.1021 2.6562-1.6521 4.4106-1.6521 1.1451 0 2.187 0.3274 3.1254 0.9811 0.52696 0.36613 1.1364 0.95979 1.8309 1.7795l-0.52938 0.45718c-0.61446-0.68635-1.1464-1.1857-1.5985-1.4984-0.78715-0.53956-1.6356-0.80993-2.5517-0.80993-1.4927 0-2.5151 0.81431-3.0636 2.4456-0.29648 0.87164-0.44296 1.9802-0.44296 3.3299 0 1.8337 0.25038 3.2964 0.7514 4.3838 0.50106 1.088 1.3491 1.6324 2.5424 1.6324 1.0554 0 2.0005-0.50549 2.8328-1.5187 0.44618-0.54845 0.88241-1.2984 1.313-2.2493h0.45445v4.3865h-0.48782c-0.0348-0.20752-0.12086-0.40728-0.25648-0.59555-0.1364-0.18973-0.31845-0.28219-0.54305-0.28219-0.0882 0-0.51068 0.14586-1.2704 0.4386-0.75897 0.29277-1.5099 0.43914-2.2526 0.43914zm11.611 0-3.932-10.246c-0.31276-0.81676-0.55417-1.3409-0.72242-1.581-0.26015-0.38097-0.60629-0.58485-1.0347-0.61523v-0.48836h3.6378v0.48836c-0.40691 0.006-0.71259 0.0417-0.91493 0.10992-0.34317 0.12303-0.51406 0.31885-0.51406 0.58789 0 0.22159 0.0786 0.57419 0.23352 1.0582 0.0734 0.2268 0.23707 0.71213 0.49054 1.4607h3.9944l0.45281-1.1462c0.10007-0.25347 0.17788-0.46905 0.2357-0.64696 0.0912-0.29869 0.13891-0.52065 0.13891-0.66664 0-0.32242-0.0908-0.52372-0.27016-0.60156-0.18011-0.08-0.55231-0.13088-1.1178-0.15531v-0.48836h5.7498v0.48836c-0.40544-0.0134-0.71669 0.14152-0.9368 0.4632-0.22015 0.32092-0.55132 1.0366-0.9975 2.1454l-3.9638 9.8339h-0.52938zm-65.203-0.29313v-0.48726c0.58258-0.0474 0.98817-0.15059 1.2157-0.30844 0.22904-0.15935 0.34289-0.48954 0.34289-0.99203v-8.8998c0-0.48475-0.10275-0.84774-0.30953-1.0894-0.20678-0.24237-0.65545-0.36651-1.347-0.37242v-0.48836h4.1907v0.48836c-0.75155 0.0304-1.2377 0.1872-1.4563 0.47031-0.22015 0.28242-0.33032 0.73289-0.33032 1.348v8.4465l0.0782 0.029 4.4051-10.782h0.47798l4.3608 10.981h0.13071v-9.129c0-0.55958-0.13068-0.92375-0.39157-1.0883-0.26162-0.16527-0.65043-0.25804-1.167-0.27508v-0.48836h5.8795v0.48836c-0.60036 0.0244-1.0113 0.14041-1.2299 0.35164-0.21938 0.21049-0.32867 0.65726-0.32867 1.3377v8.2835c0.00001 0.71229 0.10929 1.1593 0.32867 1.3431 0.21865 0.18231 0.62957 0.29724 1.2299 0.34617v0.48726h-4.4942l-3.4716-8.651-0.15149 0.0104-3.5011 8.6406h-4.4614zm16.39 0v-0.48726c0.51807-0.0304 0.87727-0.10171 1.0752-0.21438 0.34391-0.18529 0.51625-0.54727 0.51625-1.0861v-9.0612c0-0.52994-0.16689-0.89139-0.4982-1.0834-0.21641-0.12747-0.58032-0.20007-1.0932-0.21711v-0.48836h10.46l0.71366 3.8987h-0.45445c-0.56476-1.2666-1.2102-2.1294-1.9403-2.5911-0.72783-0.46029-1.669-0.68906-2.8208-0.68906-0.61075 0-1.0158 0.0711-1.213 0.21492-0.19716 0.14304-0.29531 0.41214-0.29531 0.80718v4.5325c1.0272 0 1.7396-0.21684 2.1361-0.64968 0.39578-0.43432 0.65907-1.1812 0.78805-2.2411h0.45445v6.2377h-0.45445c-0.19418-1.0451-0.47356-1.7664-0.83672-2.1585-0.36467-0.39207-1.0602-0.58317-2.0874-0.56984v4.3411c0 0.35354 0.0747 0.58922 0.22367 0.7093 0.14973 0.11858 0.4995 0.17774 1.0494 0.17774 1.4453 0 2.441-0.22284 2.9887-0.66829 0.54702-0.44618 0.93475-1.2728 1.1638-2.4817h0.45446v3.768h-10.33zm11.532 0v-0.48726c0.60704-0.0534 0.99635-0.15244 1.1698-0.29695 0.26093-0.21571 0.38992-0.68006 0.38992-1.3924v-8.2835c0-0.68635-0.11057-1.1331-0.32922-1.3377-0.21938-0.20381-0.62938-0.32126-1.2305-0.35164v-0.48836h6.0096v0.48836c-0.62258 0.0244-1.0401 0.14762-1.2469 0.37516-0.20829 0.22529-0.31281 0.66265-0.31281 1.3141v3.6695h0.0279l4.1371-5.8472h3.6783v0.48836c-0.16307 0.0111-0.30064 0.0401-0.4118 0.0853-0.11193 0.046-0.21565 0.14186-0.31719 0.28711l-3.7455 5.2965c0.63665 0.12155 1.2409 0.40106 1.8123 0.83835 0.74858 0.58331 1.1206 1.3823 1.1206 2.397 0 1.3727-0.71211 2.3231-2.1366 2.853-0.73672 0.26089-1.6983 0.39211-2.8864 0.39211h-5.7285zm12.515 0v-0.48726c0.53214-0.0245 0.90281-0.0946 1.1118-0.20727 0.3417-0.18529 0.51406-0.54846 0.51406-1.0932v-9.0612c0-0.54922-0.18083-0.91835-0.54031-1.1118-0.22012-0.1134-0.58228-0.17758-1.0856-0.18867v-0.48836h6.2048v0.48836c-0.55143 0-0.96604 0.087-1.2425 0.26195-0.27647 0.17416-0.41399 0.51971-0.41399 1.0385v9.0612c0 0.54995 0.17232 0.91776 0.51844 1.103 0.20678 0.10748 0.58662 0.17295 1.138 0.19742v0.48726h-6.2048zm-6.9092-0.61796c0.87385 0 1.4765-0.35413 1.8063-1.0664 0.19121-0.42025 0.28711-0.99181 0.28711-1.7144 0-1.1792-0.25076-1.9325-0.75031-2.2586-0.50176-0.32536-1.3343-0.49683-2.4987-0.51461v4.7524c0 0.28535 0.0745 0.48923 0.22203 0.61523 0.14749 0.1245 0.45842 0.18649 0.93351 0.18649zm-43.65-0.32375h0.16735l2.2597-5.7838h-4.585l2.158 5.7838zm-22.95-1.5159c-0.97243 0-2.0383-0.37482-3.2709-1.6215-1.6113-1.6224-2.4886-4.0415-2.5834-5.5891-0.1423-2.145 0.85297-3.3179 2.3702-3.3179 0.64037 0 1.9205 0.12453 3.3895 1.721 1.7536 1.8967 2.4412 4.2923 2.5124 5.6634 0.0949 1.8211-0.73527 3.144-2.4177 3.144zm-0.1657-0.74867c0.82937 0 0.97142-0.87305 0.94773-1.6461-0.0475-1.323-1.1611-4.6158-2.2039-6.0878-0.75822-1.0732-1.3507-1.2972-1.8725-1.2972-0.68706 0-1.0185 0.72322-0.97179 1.5963 0.0711 1.3215 0.99546 4.2911 2.3696 6.2382 0.68781 0.97241 1.2565 1.1966 1.7309 1.1966zm97.559-0.65954h0.14602l1.7084-4.3203h-3.4404l1.5859 4.3203z"/></g></svg>
